<?xml version="1.0" encoding="utf-8"?>
<!-- Generator: Adobe Illustrator 23.0.0, SVG Export Plug-In . SVG Version: 6.00 Build 0)  -->
<svg version="1.1" id="Layer_1" xmlns="http://www.w3.org/2000/svg" xmlns:xlink="http://www.w3.org/1999/xlink" x="0px" y="0px"
	 viewBox="0 0 796.2 265.5" style="enable-background:new 0 0 796.2 265.5;" xml:space="preserve">
<style type="text/css">
	.st0{fill:#2394BC;}
	.st1{fill:#EFC75E;}
</style>
<g>
	<g>
		<g>
			<path class="st0" d="M336,44.6l-28.3,176.3H353l28.3-176.3C381.3,44.6,336,44.6,336,44.6z M472.6,116.4
				c-15.8-7.8-25.5-13.1-25.5-21.1c0.2-7.3,8.2-14.7,26.1-14.7c14.7-0.4,25.5,3.1,33.7,6.5L511,89l6.2-36.9
				c-8.9-3.5-23.1-7.3-40.6-7.3c-44.7,0-76.2,23.2-76.4,56.5c-0.4,24.5,22.5,38.2,39.7,46.3c17.5,8.4,23.5,13.8,23.5,21.3
				c-0.2,11.4-14.2,16.7-27.2,16.7c-18.1,0-27.8-2.7-42.5-9.1l-6-2.7l-6.3,38.3c10.6,4.7,30.2,8.9,50.5,9.1
				c47.5,0,78.4-22.9,78.8-58.3C510.8,143.5,498.7,128.6,472.6,116.4z M633.2,45.1h-35c-10.8,0-19,3.1-23.7,14.2l-67.3,161.6h47.5
				l13.1-35h53.2l6.8,35.1h41.9L633.2,45.1z M581.1,150.6c0.9,0.1,18.2-57.1,18.2-57.1l13.8,57.1C613.1,150.6,590,150.6,581.1,150.6
				z M269.9,44.6l-44.4,119.8l-4.8-23.6c-8.2-27.3-33.9-56.9-62.6-71.6l40.6,151.5h47.9l71.2-176.1L269.9,44.6L269.9,44.6z"/>
		</g>
	</g>
	<path class="st1" d="M205.7,67.3c-3.5-13.4-14.5-22.5-29.5-22.7H106l-0.7,3.3C160.1,61.4,206.1,103,221,142.1L205.7,67.3z"/>
</g>
</svg>
